<?xml version="1.0" encoding="UTF-8"?>
<svg xmlns="http://www.w3.org/2000/svg" viewBox="0 0 1200 520" role="img" aria-labelledby="va-title va-desc">
  <title id="va-title">Clinician-in-the-Loop OMOP Criteria Mapper</title>
  <desc id="va-desc">Pipeline from eligibility criteria text through AI parsing and mapping to interactive clinician review and validated cohort.</desc>

  <defs>
    <linearGradient id="bg" x1="0" y1="0" x2="0" y2="1">
      <stop offset="0%" stop-color="#0f172a"/>
      <stop offset="100%" stop-color="#1e293b"/>
    </linearGradient>
    <linearGradient id="focus" x1="0" y1="0" x2="1" y2="1">
      <stop offset="0%" stop-color="#8b5cf6" stop-opacity="0.18"/>
      <stop offset="100%" stop-color="#f59e0b" stop-opacity="0.14"/>
    </linearGradient>
    <marker id="arrow" viewBox="0 0 10 10" refX="9" refY="5" markerWidth="7" markerHeight="7" orient="auto-start-reverse">
      <path d="M0,0 L10,5 L0,10 Z" fill="#94a3b8"/>
    </marker>
    <style>
      .title { font: 700 22px 'Inter', system-ui, sans-serif; fill: #f1f5f9; }
      .subtitle { font: 400 13px 'Inter', system-ui, sans-serif; fill: #94a3b8; }
      .stage-label { font: 600 13px 'Inter', system-ui, sans-serif; fill: #f1f5f9; }
      .stage-sub { font: 400 11px 'Inter', system-ui, sans-serif; fill: #cbd5e1; }
      .stage-tag { font: 500 10px 'Inter', system-ui, sans-serif; fill: #94a3b8; letter-spacing: 0.08em; text-transform: uppercase; }
      .focus-label { font: 700 14px 'Inter', system-ui, sans-serif; fill: #f59e0b; }
      .pill-label { font: 600 11px 'Inter', system-ui, sans-serif; fill: #f1f5f9; }
      .pill-sub { font: 400 10px 'Inter', system-ui, sans-serif; fill: #94a3b8; }
      .code { font: 500 11px 'JetBrains Mono', ui-monospace, monospace; fill: #e2e8f0; }
      .accent-purple { fill: #8b5cf6; }
      .accent-gold { fill: #f59e0b; }
      .accent-green { fill: #22c55e; }
    </style>
  </defs>

  <rect width="1200" height="520" fill="url(#bg)"/>

  <!-- Header -->
  <text x="600" y="42" text-anchor="middle" class="title">Clinician-in-the-Loop OMOP Criteria Mapper</text>
  <text x="600" y="66" text-anchor="middle" class="subtitle">Interactive visual review for AI-suggested eligibility criteria mappings</text>

  <!-- Stage 1: Criteria -->
  <g transform="translate(40, 120)">
    <rect width="180" height="180" rx="10" fill="#1e293b" stroke="#334155" stroke-width="1"/>
    <text x="90" y="22" text-anchor="middle" class="stage-tag">Input</text>
    <text x="90" y="48" text-anchor="middle" class="stage-label">Eligibility Criteria</text>
    <rect x="12" y="64" width="156" height="102" rx="6" fill="#0f172a" stroke="#334155"/>
    <text x="20" y="85" class="code">• Type 2 diabetes</text>
    <text x="20" y="105" class="code">• HbA1c &gt; 7.0 %</text>
    <text x="20" y="125" class="code">• Age 50–85</text>
    <text x="20" y="145" class="code">• No prior GLP-1</text>
    <text x="20" y="162" class="code" fill="#64748b">…12 items total</text>
  </g>

  <!-- Arrow 1 -->
  <line x1="225" y1="210" x2="265" y2="210" stroke="#94a3b8" stroke-width="1.5" marker-end="url(#arrow)"/>

  <!-- Stage 2: AI Parse -->
  <g transform="translate(270, 120)">
    <rect width="160" height="180" rx="10" fill="#1e293b" stroke="#334155" stroke-width="1"/>
    <text x="80" y="22" text-anchor="middle" class="stage-tag">Agent 1</text>
    <text x="80" y="48" text-anchor="middle" class="stage-label">AI Parsing</text>
    <text x="80" y="66" text-anchor="middle" class="stage-sub">LLM structuring</text>

    <g transform="translate(16, 88)">
      <rect width="128" height="22" rx="4" fill="#312e81" opacity="0.6"/>
      <text x="10" y="15" class="code" fill="#c4b5fd">condition: T2DM</text>
    </g>
    <g transform="translate(16, 116)">
      <rect width="128" height="22" rx="4" fill="#312e81" opacity="0.6"/>
      <text x="10" y="15" class="code" fill="#c4b5fd">measure: HbA1c &gt; 7</text>
    </g>
    <g transform="translate(16, 144)">
      <rect width="128" height="22" rx="4" fill="#312e81" opacity="0.6"/>
      <text x="10" y="15" class="code" fill="#c4b5fd">age: 50–85</text>
    </g>
  </g>

  <!-- Arrow 2 -->
  <line x1="435" y1="210" x2="475" y2="210" stroke="#94a3b8" stroke-width="1.5" marker-end="url(#arrow)"/>

  <!-- Stage 3: AI Map -->
  <g transform="translate(480, 120)">
    <rect width="160" height="180" rx="10" fill="#1e293b" stroke="#334155" stroke-width="1"/>
    <text x="80" y="22" text-anchor="middle" class="stage-tag">Agent 2</text>
    <text x="80" y="48" text-anchor="middle" class="stage-label">AI Mapping</text>
    <text x="80" y="66" text-anchor="middle" class="stage-sub">KG + embedding retrieval</text>

    <g transform="translate(16, 88)">
      <circle cx="8" cy="11" r="5" class="accent-green"/>
      <text x="22" y="15" class="code">201826 T2DM</text>
      <text x="118" y="15" text-anchor="end" class="code" fill="#64748b">0.92</text>
    </g>
    <g transform="translate(16, 108)">
      <circle cx="8" cy="11" r="5" class="accent-green"/>
      <text x="22" y="15" class="code">3004410 HbA1c</text>
      <text x="118" y="15" text-anchor="end" class="code" fill="#64748b">0.88</text>
    </g>
    <g transform="translate(16, 128)">
      <circle cx="8" cy="11" r="5" fill="#f59e0b"/>
      <text x="22" y="15" class="code">4008576 DM-2</text>
      <text x="118" y="15" text-anchor="end" class="code" fill="#64748b">0.71</text>
    </g>
    <g transform="translate(16, 148)">
      <circle cx="8" cy="11" r="5" fill="#ef4444"/>
      <text x="22" y="15" class="code">443729 Pre-DM?</text>
      <text x="118" y="15" text-anchor="end" class="code" fill="#64748b">0.43</text>
    </g>
  </g>

  <!-- Arrow 3 -->
  <line x1="645" y1="210" x2="685" y2="210" stroke="#94a3b8" stroke-width="1.5" marker-end="url(#arrow)"/>

  <!-- Stage 4: Clinician Review (FOCUS) -->
  <g transform="translate(690, 85)">
    <rect width="380" height="250" rx="14" fill="url(#focus)" stroke="#f59e0b" stroke-width="2"/>
    <rect x="10" y="10" width="78" height="20" rx="10" fill="#f59e0b"/>
    <text x="49" y="24" text-anchor="middle" class="code" fill="#0f172a" font-weight="700">THIS PROJECT</text>
    <text x="190" y="56" text-anchor="middle" class="focus-label">Clinician Review Layer</text>
    <text x="190" y="74" text-anchor="middle" class="stage-sub">Visual exploration · Feasibility preview · Gap detection</text>

    <!-- Three pillars -->
    <g transform="translate(18, 92)">
      <rect width="110" height="138" rx="8" fill="#0f172a" stroke="#475569"/>
      <!-- tree icon -->
      <g transform="translate(18, 18)" stroke="#8b5cf6" stroke-width="1.5" fill="none">
        <circle cx="37" cy="8" r="5" fill="#8b5cf6"/>
        <line x1="37" y1="13" x2="14" y2="32"/>
        <line x1="37" y1="13" x2="60" y2="32"/>
        <circle cx="14" cy="36" r="4"/>
        <circle cx="60" cy="36" r="4"/>
        <line x1="14" y1="40" x2="6" y2="56"/>
        <line x1="14" y1="40" x2="22" y2="56"/>
        <circle cx="6" cy="60" r="3"/>
        <circle cx="22" cy="60" r="3"/>
      </g>
      <text x="55" y="102" text-anchor="middle" class="pill-label">DOI Tree</text>
      <text x="55" y="118" text-anchor="middle" class="pill-sub">Focus + context</text>
      <text x="55" y="130" text-anchor="middle" class="pill-sub">hierarchy navigation</text>
    </g>

    <g transform="translate(135, 92)">
      <rect width="110" height="138" rx="8" fill="#0f172a" stroke="#475569"/>
      <!-- funnel icon -->
      <g transform="translate(25, 22)" fill="none" stroke="#22c55e" stroke-width="1.5">
        <path d="M0 0 L60 0 L42 22 L42 52 L18 52 L18 22 Z" fill="#22c55e" fill-opacity="0.2"/>
        <line x1="8" y1="8" x2="52" y2="8" stroke="#22c55e"/>
        <line x1="16" y1="20" x2="44" y2="20" stroke="#22c55e"/>
      </g>
      <text x="55" y="102" text-anchor="middle" class="pill-label">Feasibility</text>
      <text x="55" y="118" text-anchor="middle" class="pill-sub">Live cohort count</text>
      <text x="55" y="130" text-anchor="middle" class="pill-sub">attrition waterfall</text>
    </g>

    <g transform="translate(252, 92)">
      <rect width="110" height="138" rx="8" fill="#0f172a" stroke="#475569"/>
      <!-- gap icon -->
      <g transform="translate(20, 22)">
        <rect x="0" y="0" width="16" height="16" rx="3" fill="#f59e0b" fill-opacity="0.6"/>
        <rect x="22" y="0" width="16" height="16" rx="3" fill="none" stroke="#ef4444" stroke-dasharray="3 2" stroke-width="1.5"/>
        <rect x="44" y="0" width="16" height="16" rx="3" fill="#f59e0b" fill-opacity="0.6"/>
        <rect x="0" y="22" width="16" height="16" rx="3" fill="#f59e0b" fill-opacity="0.6"/>
        <rect x="22" y="22" width="16" height="16" rx="3" fill="#f59e0b" fill-opacity="0.6"/>
        <rect x="44" y="22" width="16" height="16" rx="3" fill="none" stroke="#ef4444" stroke-dasharray="3 2" stroke-width="1.5"/>
        <text x="30" y="60" text-anchor="middle" class="code" fill="#ef4444">gap!</text>
      </g>
      <text x="55" y="102" text-anchor="middle" class="pill-label">Gap Detection</text>
      <text x="55" y="118" text-anchor="middle" class="pill-sub">Missing siblings</text>
      <text x="55" y="130" text-anchor="middle" class="pill-sub">anchor-based review</text>
    </g>
  </g>

  <!-- Arrow 4 -->
  <line x1="1075" y1="210" x2="1115" y2="210" stroke="#94a3b8" stroke-width="1.5" marker-end="url(#arrow)"/>

  <!-- Stage 5: Cohort -->
  <g transform="translate(1118, 145)">
    <rect width="70" height="130" rx="10" fill="#1e293b" stroke="#22c55e" stroke-width="1.5"/>
    <text x="35" y="22" text-anchor="middle" class="stage-tag" fill="#22c55e">Output</text>
    <circle cx="35" cy="52" r="14" fill="none" stroke="#22c55e" stroke-width="2"/>
    <path d="M28 52 L33 57 L43 47" stroke="#22c55e" stroke-width="2.5" fill="none" stroke-linecap="round" stroke-linejoin="round"/>
    <text x="35" y="88" text-anchor="middle" class="stage-label" font-size="11">Validated</text>
    <text x="35" y="102" text-anchor="middle" class="stage-label" font-size="11">Cohort</text>
    <text x="35" y="118" text-anchor="middle" class="stage-sub" font-size="10">n = 8,742</text>
  </g>

  <!-- Footer caption -->
  <g transform="translate(40, 370)">
    <text x="0" y="0" class="subtitle" fill="#cbd5e1" font-weight="600">The bottleneck this project targets</text>
    <text x="0" y="22" class="subtitle">Current tools (Athena · Usagi · ATLAS) force clinicians to verify AI mappings</text>
    <text x="0" y="40" class="subtitle">one concept at a time, across separate windows, with no clinical-data context</text>
    <text x="0" y="58" class="subtitle">and no cohort-size preview — slow, inconsistent, and untraceable.</text>
  </g>

  <g transform="translate(700, 370)">
    <text x="0" y="0" class="subtitle" fill="#f59e0b" font-weight="600">Our contribution</text>
    <g transform="translate(0, 18)">
      <circle cx="6" cy="6" r="3" class="accent-purple"/>
      <text x="18" y="10" class="subtitle">Visual concept hierarchy with DOI + semantic zoom</text>
    </g>
    <g transform="translate(0, 38)">
      <circle cx="6" cy="6" r="3" class="accent-green"/>
      <text x="18" y="10" class="subtitle">Real-time cohort-size preview during concept selection</text>
    </g>
    <g transform="translate(0, 58)">
      <circle cx="6" cy="6" r="3" class="accent-gold"/>
      <text x="18" y="10" class="subtitle">Gap detection via anchor-based sibling expansion</text>
    </g>
  </g>

  <!-- Tool row at bottom -->
  <g transform="translate(40, 478)">
    <text x="0" y="0" class="stage-tag">Validation studies:</text>
    <g transform="translate(128, -10)">
      <rect width="88" height="18" rx="9" fill="#1e293b" stroke="#475569"/>
      <text x="44" y="12" text-anchor="middle" class="code" fill="#cbd5e1">LEADER</text>
    </g>
    <g transform="translate(224, -10)">
      <rect width="78" height="18" rx="9" fill="#1e293b" stroke="#475569"/>
      <text x="39" y="12" text-anchor="middle" class="code" fill="#cbd5e1">PLATO</text>
    </g>
    <g transform="translate(310, -10)">
      <rect width="98" height="18" rx="9" fill="#1e293b" stroke="#475569"/>
      <text x="49" y="12" text-anchor="middle" class="code" fill="#cbd5e1">ARISTOTLE</text>
    </g>
    <text x="420" y="0" class="subtitle">12 / 15 / 18 criteria · T2DM, ACS, AFib</text>
  </g>
</svg>
